<?xml version="1.0" encoding="utf-8"?>
<!-- Generator: Adobe Illustrator 19.1.0, SVG Export Plug-In . SVG Version: 6.00 Build 0)  -->
<svg version="1.1" id="Layer_1" xmlns="http://www.w3.org/2000/svg" xmlns:xlink="http://www.w3.org/1999/xlink" x="0px" y="0px"
	 viewBox="0 0 440 72" style="enable-background:new 0 0 440 72;" xml:space="preserve">
<style type="text/css">
	.st0{fill:#21D08F;}
</style>
<g>
	<path class="st0" d="M52.1,21.9L34.3,44.3l-7.8-9.8L19.8,43l-7.5,9.4v3.4c0,1.6,1.3,3,3,3h7.5h23h24.5c1.6,0,3-1.3,3-3v-7.4
		L65.9,39L52.1,21.9z"/>
	<path class="st0" d="M264.3,48.1c-0.7-1.5-2.2-3.8-4.1-5.2c6.3-0.6,12.4-5.2,12.4-14.1c0-9.3-6.7-14.1-16.1-14.1h-18.7v46.6h-27.5
		V42.4h19.8v-5.8h-19.8V20.3h23.3v-5.8h-30.4v46.7H180V14.5h-5.1c-0.8,0-2.4,0-3.3,0c-6.6,0-8.9,4.7-11.5,10.9l0,0
		c-1.8,3.9-3.6,11.1-7.9,12.4c-4.3-1.3-6.1-8.6-7.9-12.4l0,0c-2.5-6.2-4.9-10.8-11.5-10.8c-0.8,0-2,0-2.9,0H96.6v5.8h15v46.7h7.1
		V20.3h11c0.5,0,1,0,1.5,0.1c5.2,0.3,7.2,9,9.2,13.2l0,0c2,4.9,3.9,8.9,8.1,10.3c0,0,0.1,0,0.2,0V67h7.1V43.9c0.1,0,0.1,0,0.2,0
		c4.1-1.4,6.1-5.4,8.1-10.3l0,0c2-4.2,3.8-12.9,9-13V67h30.4h0.1H238h0.5h6.6V44.3h6.2c4.9,0,7.1,6.8,9.3,12.1
		c2.5,6.2,4.9,10.8,11.5,10.8c1.2,0,2.5-0.2,2.5-0.2l0.8-6.2c0,0-0.8,0.3-1.8,0.3C268.2,61.2,266.3,52.4,264.3,48.1z M254.9,38.8
		h-10V20.1h11.5c4.2,0,8.7,2.2,8.7,9C265.2,37.1,259.3,38.8,254.9,38.8z"/>
	<path class="st0" d="M73.8,1.7h-62c-6,0-10.8,4.8-10.8,10.8v47c0,6,4.8,10.8,10.8,10.8h61.9c6,0,10.8-4.8,10.8-10.8v-47
		C84.6,6.5,79.8,1.7,73.8,1.7z M77.9,59.5c0,2.2-1.8,4.1-4.1,4.1H11.9c-2.2,0-4.1-1.8-4.1-4.1v-47c0-2.2,1.8-4.1,4.1-4.1h61.9
		c2.2,0,4.1,1.8,4.1,4.1V59.5z"/>
	<circle class="st0" cx="26.5" cy="22.2" r="5.5"/>
	<rect x="281" y="58.5" class="st0" width="7.9" height="8.5"/>
	<path class="st0" d="M304.7,22h12.7v31.8c0,5.9-2.7,9.1-7.6,8.9c-0.9,0-1.2,0-2.1-0.3c-2.5-0.6-3.9-2-5.1-4.1c-0.9-1.7-1.4-3-2.2-5
		c-0.2-0.6-0.9-2.9-1.2-3.6c-2.1-6.2-4-9.8-10.6-9.8c-1.2,0-2.5,0.2-2.5,0.2l-0.8,6.2c0,0,0.8-0.3,1.8-0.3c5.2,0,7.2,9,9.2,13.1
		c0.7,1.5,2.7,4.7,4.6,6.2l0,0c2.1,1.8,5.2,2.9,9.3,2.9c8.8,0,13.9-5.5,13.9-14.3V16.7h-19.6V22H304.7z"/>
	<path class="st0" d="M349.3,16.7H331v50.4h6.8V47.2h11.5c9.4,0,15.9-5.6,15.9-15.4C365.4,21.7,358.5,16.7,349.3,16.7z M349.3,42
		h-11.4V22h11.4c4.1,0,9,2.4,9,9.9S353.3,42,349.3,42z"/>
	<polygon class="st0" points="376,43.5 395,43.5 395,37.9 376,37.9 376,22.3 398.4,22.3 398.4,16.7 369.2,16.7 369.2,67.1 
		399.1,67.1 399.1,61.5 376,61.5 	"/>
	<path class="st0" d="M421.8,43.2v5.2h10.9v3.8c-0.2,6.8-4.4,10.4-11.6,10.4c-7.8,0-14-4.4-14-20.9c0-16.2,6.2-20.8,13.9-20.8
		c7.4,0,11.3,3.3,10.2,11.9l6.8-0.7c1.3-9.3-3.9-16.4-16.8-16.4c-12.9,0-21.3,7.5-21.3,25.8c0,18.3,8.3,26.3,21,26.3
		c6.2,0,10.4-3.2,12.6-7.9v7h5.5V43.2H421.8z"/>
</g>
</svg>
