<?xml version="1.0" encoding="utf-8"?>
<!-- Generator: Adobe Illustrator 19.2.1, SVG Export Plug-In . SVG Version: 6.00 Build 0)  -->
<svg version="1.1" id="Layer_1" xmlns="http://www.w3.org/2000/svg" xmlns:xlink="http://www.w3.org/1999/xlink" x="0px" y="0px"
	 viewBox="0 0 87 87" style="enable-background:new 0 0 87 87;" xml:space="preserve">
<style type="text/css">
	.st0{clip-path:url(#SVGID_2_);fill:#FFFFFF;}
</style>
<g>
	<defs>
		<rect id="SVGID_1_" x="-1206.5" y="-878" width="2500" height="1843.8"/>
	</defs>
	<clipPath id="SVGID_2_">
		<use xlink:href="#SVGID_1_"  style="overflow:visible;"/>
	</clipPath>
	<path class="st0" d="M86.5,42.1v2.8c0,0.2-0.1,0.3-0.1,0.5c-0.1,1.2-0.2,2.5-0.4,3.7c-0.7,4-2.1,7.7-4.2,11.1
		c-3.2,5.2-7.6,9.1-13.1,11.8c-3.2,1.6-6.6,2.6-10.1,3c-0.8,0.1-1.6,0.2-2.3,0.3H26.1c-0.2,0-0.3-0.1-0.5-0.1c-3-0.2-6-0.9-8.8-2.1
		c-6.1-2.7-10.6-7-13.6-12.9c-1.3-2.6-2.2-5.4-2.5-8.4c-0.1-0.7-0.2-1.4-0.3-2.1v-2.7c0-0.2,0.1-0.3,0.1-0.5
		c0.2-2.6,0.7-5.2,1.7-7.7c2.6-6.6,7-11.5,13.4-14.7c3.3-1.7,6.8-2.5,10.5-2.7c1.8-0.1,3.6,0,5.4,0.2c0.2,0,0.4-0.1,0.5-0.2
		c2.6-2.6,5.5-4.8,8.8-6.4c3.2-1.6,6.6-2.6,10.1-3c0.8-0.1,1.7-0.2,2.5-0.3H56c0.2,0,0.3,0.1,0.5,0.1c1.3,0.1,2.6,0.2,3.8,0.5
		c3.9,0.7,7.6,2.1,11,4.2c5.2,3.2,9.2,7.6,11.9,13.1c1.6,3.2,2.6,6.6,3,10.1C86.3,40.5,86.4,41.3,86.5,42.1 M38.4,23.8
		c0.1,0.1,0.1,0.1,0.1,0.1c1.8,0.9,3.5,1.9,5.1,3.1c0.1,0.1,0.3,0,0.5,0c4.4-2.8,9.1-3.7,14.2-2.8c5,0.9,9.1,3.4,12.2,7.4
		c3.5,4.5,4.9,9.6,3.9,15.3c-0.7,3.8-2.2,7.2-4.8,10.1c-4.7,5.2-10.6,7.4-17.6,6.5c-4.3-0.6-8-2.4-11.1-5.5
		c-3.9-4-7.9-7.9-11.8-11.9c-0.5-0.5-1.1-1-1.9-1c-1.3-0.2-2.5,0.5-3.1,1.7c-0.5,1.1-0.4,2.3,0.7,3.3c4.4,4.3,8.8,8.7,13.2,13
		c0.8,0.7,1.6,1.4,2.4,2.1c3.2,2.3,6.8,3.6,10.7,4.1c3.1,0.4,6.1,0.3,9.2-0.4c5.8-1.3,10.6-4.2,14.3-8.8c3.1-3.8,5-8.1,5.7-12.9
		c0.4-2.8,0.3-5.6-0.2-8.3c-0.9-4.5-2.8-8.5-5.8-11.9c-5.8-6.5-13.1-9.4-21.8-8.8c-3.3,0.2-6.5,1.2-9.5,2.8
		C41.3,21.6,39.8,22.6,38.4,23.8 M36.3,69.2c-0.1-0.1-0.2-0.2-0.4-0.3c-1.8-1.7-3.6-3.4-5.4-5.1c-0.3-0.3-0.7-0.5-1.1-0.5
		c-1.8,0-3.6,0.1-5.4-0.3c-8.8-2-13.9-11.6-10.7-20c2.6-6.7,9.7-10.7,16.7-9.5c3.1,0.6,5.9,1.9,8.2,4.2c2.8,2.8,5.6,5.6,8.4,8.4
		c0.6,0.6,1.4,0.9,2.2,0.8c1.1-0.2,2-0.7,2.4-1.8c0.4-1.1,0.2-2.1-0.6-3c-2.9-3-5.8-6-8.8-8.8c-5.9-5.5-12.9-7.1-20.6-4.8
		c-10.4,3.1-16.4,13.8-14,24.4c2.2,9.6,10.6,16.4,20.4,16.4c2.7,0,5.5,0,8.2,0C35.9,69.2,36.1,69.2,36.3,69.2"/>
</g>
</svg>
