<?xml version="1.0" encoding="utf-8"?>
<!-- Generator: Adobe Illustrator 19.2.1, SVG Export Plug-In . SVG Version: 6.00 Build 0)  -->
<svg version="1.1" id="Layer_1" xmlns="http://www.w3.org/2000/svg" xmlns:xlink="http://www.w3.org/1999/xlink" x="0px" y="0px"
	 viewBox="0 0 100 30.7" style="enable-background:new 0 0 100 30.7;" xml:space="preserve">
<style type="text/css">
	.st0{fill:#FFFFFF;}
</style>
<g>
	<g>
		<path class="st0" d="M29.8,21.8V9.7h1.6l7.4,9.7V9.7h1.5v12.1h-1.6l-7.4-9.8v9.8H29.8z M52.2,21.3c-1,0.4-2,0.6-3.1,0.6
			c-4.4,0-6.6-2.1-6.6-6.3c0-4,2.1-6,6.3-6c1.2,0,2.3,0.2,3.4,0.5v1.3c-1-0.4-2.1-0.6-3.2-0.6c-3.3,0-4.9,1.6-4.9,4.7
			c0,3.4,1.6,5,4.9,5c0.5,0,1.1-0.1,1.7-0.2v-4h1.6V21.3L52.2,21.3z M54.7,17.1V9.7h1.6v7.4c0,2.3,1.2,3.5,3.5,3.5
			c2.3,0,3.5-1.2,3.5-3.5V9.7h1.6v7.4c0,3.2-1.7,4.8-5,4.8C56.4,21.9,54.7,20.3,54.7,17.1z M69.1,9.7v10.8h6.3v1.3h-7.9V9.7
			L69.1,9.7L69.1,9.7z M77.7,21.8H76l6-13.7l6,13.7h-1.7L84.8,18h-4l0.4-1.3h3L82,11.2L77.7,21.8L77.7,21.8z M89.7,21.8V9.7h5.2
			c2.3,0,3.5,1,3.5,2.9c0,1.6-1.1,2.7-3.4,3.5l4.1,5.7H97l-3.8-5.4v-1c2.3-0.4,3.5-1.2,3.5-2.7c0-1.1-0.6-1.7-1.9-1.7h-3.5v10.8
			H89.7L89.7,21.8z"/>
	</g>
	<g>
		<polygon class="st0" points="13.3,2 13.3,2 26,6.4 		"/>
		<polygon class="st0" points="13.3,10.7 13.3,10.7 11.1,16.1 13.3,16.1 15.9,16.1 		"/>
		<path class="st0" d="M13.3,2L0.9,6.5l1.9,16.4l10.5,5.8l10.6-5.9L26,6.4L13.3,2z M18.6,22.3l-1.7-3.9h-3.6H10l-1.6,3.9l-2.9,0.1
			l7.7-17.1l0,0l8,17.2L18.6,22.3z"/>
	</g>
</g>
</svg>
