<svg width="87" height="87" viewBox="0 0 87 87" xmlns="http://www.w3.org/2000/svg">
    <path d="M0 0v86.26h86.212V0H0zm45.602 73.502C44.33 76.09 41.9 77.79 39.086 78.61c-4.325.993-8.462.426-11.54-1.422-2.06-1.264-3.667-3.21-4.76-5.452l6.567-4.023c.057.024.23.336.46.74.837 1.403 1.56 2.396 2.978 3.094 1.396.476 4.458.78 5.64-1.675.722-1.25.492-5.264.492-9.706 0-6.98.032-13.93.032-20.832h8.075c0 7.59.04 14.78 0 22.187.017 4.542.41 8.59-1.428 11.982zm33.5-2.283c-2.806 9.606-18.457 9.918-24.71 3.57-1.322-1.493-2.15-2.274-2.94-3.998 3.325-1.913 3.325-1.913 6.56-3.785 1.755 2.702 3.38 4.187 6.302 4.795 3.964.485 7.953-.878 7.058-5.09-.92-3.442-8.118-4.28-13.016-7.958-4.974-3.342-6.14-11.463-2.052-16.103 1.362-1.715 3.685-2.996 6.122-3.612l2.544-.33c4.883-.098 7.936 1.193 10.177 3.696.623.632 1.132 1.314 2.084 2.792-2.6 1.66-2.592 1.643-6.32 4.057-.794-1.716-2.115-2.792-3.51-3.26-2.168-.657-4.9.057-5.468 2.348-.196.707-.156 1.364.157 2.53.877 2.003 3.823 2.874 6.466 4.09 7.608 3.087 10.177 6.397 10.81 10.338.607 3.392-.148 5.593-.263 5.92z" fill="#FFF" fill-rule="evenodd"/>
</svg>
