<?xml version="1.0" encoding="utf-8"?>
<!-- Generator: Adobe Illustrator 19.2.1, SVG Export Plug-In . SVG Version: 6.00 Build 0)  -->
<svg version="1.1"
	 id="svg3059" xmlns:cc="http://creativecommons.org/ns#" xmlns:dc="http://purl.org/dc/elements/1.1/" xmlns:rdf="http://www.w3.org/1999/02/22-rdf-syntax-ns#" xmlns:svg="http://www.w3.org/2000/svg"
	 xmlns="http://www.w3.org/2000/svg" xmlns:xlink="http://www.w3.org/1999/xlink" x="0px" y="0px" viewBox="0 0 140 67"
	 style="enable-background:new 0 0 140 67;" xml:space="preserve">
<style type="text/css">
	.st0{fill:#FFFFFF;}
</style>
<g id="layer1" transform="translate(130.53125,-317.84375)">
	<path id="path21" class="st0" d="M-20.1,350.5c5.1,1.8,7.6,4.8,7.6,9.2c0,2.8-1.1,5.1-3.2,6.8c-2.1,1.7-5.1,2.7-9,2.7
		s-7.5-1.1-10.8-3c0-1,0.3-2.1,0.8-3.2s1-2.1,1.7-2.8c3.1,1.6,5.7,2.4,8,2.4c1.1,0,1.9-0.2,2.5-0.5c0.6-0.4,0.9-0.8,0.9-1.4
		c0-1.1-0.9-2-2.6-2.6l-3.2-1.2c-4.8-1.7-7.2-4.6-7.2-8.5c0-2.9,1-5.2,3-6.9c2-1.7,4.7-3.1,8.1-3.1c1.7,0,3.5,0.2,5.6,0.7
		c2,0.5,3.7,1.6,5,2.3c0.1,1.1-0.1,2.2-0.6,3.5c-0.5,1.3-1.1,2.2-1.8,2.7c-3.2-1.4-5.9-2.2-8-2.2c-0.8,0-1.3,0.2-1.8,0.5
		c-0.4,0.3-0.6,0.8-0.6,1.3c0,0.9,0.7,1.6,2.2,2.2L-20.1,350.5L-20.1,350.5z"/>
	<path id="path23" class="st0" d="M-45.5,350.5c5.1,1.8,7.6,4.8,7.6,9.2c0,2.8-1.1,5.1-3.2,6.8c-2.1,1.7-5.1,2.7-9,2.7
		c-3.9,0-7.5-1.1-10.8-3c0-1,0.3-2.1,0.8-3.2c0.5-1.2,1-2.1,1.7-2.8c3.1,1.6,5.7,2.4,8,2.4c1.1,0,1.9-0.2,2.5-0.5
		c0.6-0.4,0.9-0.8,0.9-1.4c0-1.1-0.9-2-2.6-2.6l-3.2-1.2c-4.8-1.7-7.2-4.6-7.2-8.5c0-2.9,1-5.2,3-6.9c2-1.7,4.7-3.1,8.1-3.1
		c1.7,0,3.5,0.2,5.6,0.7c2,0.5,3.7,1.6,5,2.3c0.1,1.1-0.1,2.2-0.6,3.5c-0.5,1.3-1.1,2.2-1.8,2.7c-3.2-1.4-5.9-2.2-8-2.2
		c-0.8,0-1.3,0.2-1.8,0.5c-0.4,0.3-0.6,0.8-0.6,1.3c0,0.9,0.7,1.6,2.2,2.2L-45.5,350.5L-45.5,350.5z"/>
	<path id="path25" class="st0" d="M-64.1,350.9c0-1.7-0.3-3.4-0.8-4.8c-0.6-1.5-1.3-2.7-2.4-3.8c-1-1.1-2.3-1.9-3.8-2.5
		c-1.5-0.6-3.1-1.5-5-1.5c-2.2,0-4.1,1-5.7,1.7c-1.6,0.8-3,1.8-4,3.1c-1.1,1.3-1.8,2.9-2.4,4.7c-0.5,1.8-0.8,3.8-0.8,5.9
		c0,2.2,0.2,4.2,0.6,6.1c0.4,1.9,1.1,3.5,2.2,4.8c1,1.4,2.3,2.4,4,3.2c1.6,0.8,3.6,1.3,6.1,1.3c4.4,0,8.2-1.3,11.2-3.4
		c-0.3-2.2-1.1-3.9-2.3-5.2c-1.6,0.6-2.9,1-4.1,1.3c-1.2,0.3-2.3,0.4-3.2,0.4c-1.8,0-3.1-0.5-3.9-1.4c-0.8-0.9-1.2-2-1.3-3.7h14.9
		C-64.3,355.3-64.1,353.2-64.1,350.9z M-79.8,351.3c0.1-1.9,0.5-4,1.1-4.9c0.6-0.9,1.5-1.3,2.7-1.3c1.3,0,2.2,0.5,2.8,1.4
		c0.6,0.9,0.9,2.7,0.9,4.1l0,0.6H-79.8L-79.8,351.3L-79.8,351.3z"/>
	<path id="path27" class="st0" d="M3.3,355.1c-1.6,1.4-2.6,3.5-2.6,6.1v9.9c0,3.3-1,5.8-3.3,7.5c-2.3,1.7-5,2.6-8,2.7l-1.8,0v-4.9
		c1.6-0.5,2.2-1,2.9-1.6c1.1-1,2-2.7,2-5.1v-8c0-2.7,0.3-4.9,1.2-6.4c1-1.5,2.9-2.9,5.8-4.1c-3.2-1.5-5.3-3.4-6.4-5.7
		c-0.6-1.4-0.7-3.3-0.7-5.6v-7.4c0-2.4-0.8-4.1-1.8-5.1c-0.6-0.6-1.4-1.1-3.1-1.5v-4.6c2.2,0,3.2,0,4.5,0c1.9,0,3.5,1,5,2.1
		c1.5,1.2,2.6,2.8,3.3,4.9c0.4,1.2,0.4,2.3,0.4,3.4v8.5c0,3,0.9,5.2,2.4,6.7c0.9,0.8,2.1,1.6,4.1,2.3v3.8
		C5.4,353.5,4.2,354.2,3.3,355.1L3.3,355.1z"/>
	<path id="path29" class="st0" d="M-110.9,321.2L-110.9,321.2c-0.6,0-1.2,0-1.6,0c-1.9,0-3.5,1-5,2.1c-1.5,1.2-2.8,2.8-3.3,4.9
		c-0.2,1.2-0.2,2.3-0.2,3.4v8.5c0,3-1.1,5.2-2.6,6.7c-0.9,0.8-2.7,1.6-4.7,2.3v3.8c1.8,0.5,3.6,1.2,4.6,2.1c1.6,1.4,2.8,3.5,2.8,6.1
		v9.9c0,3.3,0.8,5.8,3.1,7.5c2.3,1.7,5,2.6,8,2.7l2,0v-5c-1.6-0.5-2.5-1-3.1-1.6c-1.1-1-1.8-2.7-1.8-5.1v-8c0-2.7-0.5-4.9-1.5-6.4
		c-1-1.5-2.9-2.9-5.8-4.1c3.2-1.5,5.3-3.4,6.4-5.7c0.6-1.4,0.9-3.3,0.9-5.6v-7.4c0-2.4,0.6-4.1,1.5-5.1c0.5-0.5,1.5-1,2.8-1.3l2.1,0
		c0-1.8,0-2.9,0-4.9L-110.9,321.2L-110.9,321.2L-110.9,321.2L-110.9,321.2z"/>
	<path id="path31" class="st0" d="M-91.8,361.5h-1.6c-1.7,0-2.3-0.9-2.3-2.7v-32.7c0-2-0.6-3.3-1.3-4.1c-0.7-0.8-2-0.8-3.8-0.8h-3.5
		l-0.4,0v0l0,4.9v34.3c0,2.7,0.6,4.7,1.7,6c1.1,1.3,2.9,1.9,5.5,1.9c1.8,0,3.8-0.2,6.1-0.6c0.1-0.4,0.2-1.2,0.2-2.5
		C-91.1,364-91.4,362.8-91.8,361.5L-91.8,361.5z"/>
</g>
</svg>
