<?xml version="1.0" encoding="utf-8"?>
<!-- Generator: Adobe Illustrator 19.1.0, SVG Export Plug-In . SVG Version: 6.00 Build 0)  -->
<svg version="1.1" id="Layer_1" xmlns="http://www.w3.org/2000/svg" xmlns:xlink="http://www.w3.org/1999/xlink" x="0px" y="0px"
	 viewBox="0 0 436 70" style="enable-background:new 0 0 436 70;" xml:space="preserve">
<style type="text/css">
	.st0{fill:#21D08F;}
</style>
<g>
	<path class="st0" d="M51.7,21L34,43.2l-7.7-9.7l-6.6,8.4l-7.4,9.3v3.4c0,1.6,1.3,3,3,3h7.4h22.8h24.3c1.6,0,3-1.3,3-3v-7.3L65.3,38
		L51.7,21z"/>
	<path class="st0" d="M261.9,47c-0.7-1.5-2.2-3.8-4.1-5.2c6.2-0.6,12.3-5.2,12.3-14c0-9.2-6.6-14-15.9-14h-18.5V60h-27.2V41.3h19.6
		v-5.7h-19.6V19.4h23.1v-5.7h-30.1V60h-23.1V13.7h-5.1c-0.8,0-2.4,0-3.3,0c-6.5,0-8.8,4.7-11.4,10.8l0,0c-1.8,3.9-3.6,11-7.8,12.3
		c-4.3-1.3-6-8.5-7.8-12.3l0,0c-2.5-6.1-4.9-10.7-11.4-10.7c-0.8,0-2,0-2.9,0H95.8v5.7h14.9v46.3h7V19.4h10.9c0.5,0,1,0,1.5,0.1
		c5.2,0.3,7.1,8.9,9.1,13.1l0,0c2,4.9,3.9,8.8,8,10.2c0,0,0.1,0,0.2,0v22.9h7V42.8c0.1,0,0.1,0,0.2,0c4.1-1.4,6-5.3,8-10.2l0,0
		c2-4.2,3.8-12.8,8.9-12.9v46h30.1h0.1h34.1h0.5h6.5V43.2h6.1c4.9,0,7,6.7,9.2,12c2.5,6.1,4.9,10.7,11.4,10.7c1.2,0,2.5-0.2,2.5-0.2
		l0.8-6.1c0,0-0.8,0.3-1.8,0.3C265.7,60,263.9,51.2,261.9,47z M252.6,37.8h-9.9V19.2h11.4c4.2,0,8.6,2.2,8.6,8.9
		C262.8,36.1,256.9,37.8,252.6,37.8z"/>
	<path class="st0" d="M73.2,1H11.8C5.9,1,1.1,5.8,1.1,11.7v46.6C1.1,64.2,5.9,69,11.8,69h61.3c5.9,0,10.7-4.8,10.7-10.7V11.7
		C83.9,5.8,79.1,1,73.2,1z M77.2,58.3c0,2.2-1.8,4.1-4.1,4.1H11.8c-2.2,0-4.1-1.8-4.1-4.1V11.7c0-2.2,1.8-4.1,4.1-4.1h61.3
		c2.2,0,4.1,1.8,4.1,4.1V58.3z"/>
	<circle class="st0" cx="26.3" cy="21.3" r="5.4"/>
	<rect x="278.4" y="57.3" class="st0" width="7.8" height="8.4"/>
	<path class="st0" d="M301.9,21.1h12.6v31.5c0,5.8-2.7,9-7.5,8.8c-0.9,0-1.2,0-2.1-0.3c-2.5-0.6-3.9-2-5.1-4.1c-0.9-1.7-1.4-3-2.2-5
		c-0.2-0.6-0.9-2.9-1.2-3.6c-2.1-6.1-4-9.7-10.5-9.7c-1.2,0-2.5,0.2-2.5,0.2l-0.8,6.1c0,0,0.8-0.3,1.8-0.3c5.2,0,7.1,8.9,9.1,13
		c0.7,1.5,2.7,4.7,4.6,6.1l0,0c2.1,1.8,5.2,2.9,9.2,2.9c8.7,0,13.8-5.4,13.8-14.2V15.9h-19.4V21.1z"/>
	<path class="st0" d="M346.1,15.9H328v49.9h6.7V46.1h11.4c9.3,0,15.8-5.5,15.8-15.3C362,20.8,355.2,15.9,346.1,15.9z M346.1,40.9
		h-11.3V21.1h11.3c4.1,0,8.9,2.4,8.9,9.8S350.1,40.9,346.1,40.9z"/>
	<polygon class="st0" points="372.5,42.4 391.4,42.4 391.4,36.9 372.5,36.9 372.5,21.4 394.7,21.4 394.7,15.9 365.8,15.9 
		365.8,65.8 395.4,65.8 395.4,60.3 372.5,60.3 	"/>
	<path class="st0" d="M417.9,42.1v5.2h10.8v3.8c-0.2,6.7-4.4,10.3-11.5,10.3c-7.7,0-13.9-4.4-13.9-20.7c0-16,6.1-20.6,13.8-20.6
		c7.3,0,11.2,3.3,10.1,11.8l6.7-0.7c1.3-9.2-3.9-16.2-16.6-16.2c-12.8,0-21.1,7.4-21.1,25.6c0,18.1,8.2,26.1,20.8,26.1
		c6.1,0,10.3-3.2,12.5-7.8v6.9h5.4V42.1H417.9z"/>
</g>
</svg>
