<?xml version="1.0" encoding="utf-8"?>
<!-- Generator: Adobe Illustrator 19.2.1, SVG Export Plug-In . SVG Version: 6.00 Build 0)  -->
<svg version="1.1" id="Layer_1" xmlns="http://www.w3.org/2000/svg" xmlns:xlink="http://www.w3.org/1999/xlink" x="0px" y="0px"
	 viewBox="0 0 100 30.7" style="enable-background:new 0 0 100 30.7;" xml:space="preserve">
<style type="text/css">
	.st0{fill:#FFFFFF;}
</style>
<g>
	<path class="st0" d="M94.4,21L94.4,21c2,0,3.4-1.4,3.4-3.3c0-1-0.3-1.9-0.8-2.5c-0.5-0.7-1.3-1-2.2-1.1l0,0c-1.2,0-2.4,0.9-3.5,2.8
		L91.3,17l-0.1-0.2c-0.3-0.8-0.5-1.5-0.7-1.9c-0.1-0.3-0.2-0.4-0.2-0.5c-0.1-0.2-0.2-0.3-0.5-0.3c-0.1,0-0.3,0-0.4,0.1
		c-0.1,0.1-0.2,0.2-0.2,0.3l0,0c-1.1,3.5-2,5.2-2.8,5.2c-0.1,0-0.2,0-0.3-0.1C86,19.5,86,19,86.1,18.2c0.1-0.5,0.1-1.2,0.1-1.8
		c0-1.3-0.7-2-1.8-2c-1.4,0-2.3,1.5-2.7,2.4L81.5,17l0-0.3c-0.1-1.1-0.5-2.4-1.6-2.4c-1.4,0-2.4,1.6-3,2.9l-0.2,0.4l0-0.4
		c0.1-1.8,0.1-2.8,0.2-3.1c0-0.3,0-0.5-0.1-0.6c-0.1-0.1-0.3-0.1-0.5-0.1c-0.4,0-0.7,0.3-1,1.2c-0.6,1.5-2,4.9-3.1,4.9
		c-0.2,0-0.4-0.1-0.5-0.2c-0.5-0.5-0.3-2,0-4l0-0.2c0.1-1-0.1-1.2-0.6-1.3c-0.1,0-0.1,0-0.2,0c-0.4,0-0.6,0.4-1,1.5
		c-0.7,2-1.6,4-2.6,4c0,0-0.1,0-0.1,0c-0.5-0.1-0.5-0.9-0.5-1.9c0-0.6,0-1.2-0.1-1.8c-0.2-1-0.8-1.7-1.6-1.7c-1.6,0-2.7,2.1-3.2,3.3
		l-0.1,0.3l0-0.3c-0.1-0.5-0.2-1.4-0.2-2.4l0,0l0,0c3.1-3.8,4.4-6.6,4.4-9c0-1.5-0.7-2.4-1.9-2.4c-0.9,0-2.9,0.7-3.6,7.4
		c-0.1,1.2-0.2,2.5-0.2,3.8l0,0l0,0c-1.4,2-4.4,5.5-7.3,5.5c-2.6,0-4.7-2.1-4.7-5.9c0-5,3.6-8.1,6.3-8.1l0,0c0.6,0,1.1,0.2,1.4,0.5
		c0.4,0.3,0.6,0.8,0.6,1.3c0,0.7-0.2,1.1-0.5,1.4c-0.1,0.1-0.1,0.2-0.2,0.3c-0.1,0.1-0.1,0.2,0,0.3c0.1,0.1,0.3,0.2,0.5,0.2
		c0.6,0,1.6-0.9,1.6-2.3c0-1.5-1.2-3-3.4-3c-3.3,0-7.8,3.6-7.8,9.6c0,4.2,2.6,7.1,6.2,7.1c2.5,0,5-1.8,7.2-4.8l0.1-0.2l0,0.2
		c0,1.1,0.1,2,0.2,2.6c0,0.4,0.1,0.7,0.1,0.9c0,0.4,0.1,0.6,0.2,0.8c0.1,0.2,0.3,0.2,0.6,0.2c0.5,0,0.6-0.3,0.8-1.2l0.1-0.2
		c0.2-1,1.1-4.3,2.5-4.3c0.2,0,0.4,0.1,0.5,0.2c0.3,0.3,0.3,1,0.2,1.7c0,0.5,0,1,0,1.4c0.1,1.3,0.7,1.9,1.7,1.9c1,0,2.1-1.1,2.7-2.2
		l0.1-0.2l0,0.2c0.1,0.6,0.6,2.4,2.1,2.4c1.3,0,2.5-1.4,3.7-4.3l0.2-0.4l0,0.4c0,1.1-0.1,2.4-0.1,3.5c0,0.8,0.1,1.1,0.5,1.1l0.1,0
		c0.4,0,0.6-0.2,0.7-0.6c0.9-3.3,1.8-4.8,2.6-4.8c0.8,0,0.9,1.5,0.9,4l0,0.2c0,0.9,0.1,1.3,0.6,1.3c0.4,0,0.5-0.3,0.7-1.1
		c0-0.2,0.1-0.3,0.1-0.5c0.8-2.7,1.4-3.7,2.2-3.7c0.7,0,0.7,0.7,0.7,0.9c0,0.5,0,1-0.1,1.5c0,0.5-0.1,0.9-0.1,1.4
		c0,1,0.6,1.6,1.6,1.6c1.3,0,2.4-1.5,3.5-4.5l0.1-0.2l0.1,0.2c0.2,0.5,0.4,1.1,0.6,1.8l0,0l0,0c-1,2.2-1.7,4.6-1.7,5.9
		c0,1.7,0.8,2.8,2,2.8l0,0c0.7,0,2.2-0.3,2.2-2.7c0-1-0.2-2.4-0.7-4.2l-0.1-0.2l0.2,0.1C93.1,20.7,93.7,21,94.4,21L94.4,21z
		 M61.3,12.7c0-0.6,0.1-1.2,0.2-1.8C62,7.2,63,4.7,63.9,4.7h0c0.5,0,0.7,0.3,0.7,1c0,1.6-1.1,4-3.1,7l-0.2,0.2L61.3,12.7z
		 M91.5,25.7c-0.2,0.2-0.4,0.3-0.6,0.3c-0.3,0-0.5-0.1-0.7-0.3c-0.4-0.6-0.3-1.9,0.4-4.4c0.1-0.3,0.2-0.6,0.3-0.9l0.1-0.2l0.1,0.2
		C91.8,23.3,92,25.1,91.5,25.7L91.5,25.7z M91.8,18.5L91.8,18.5l0-0.1l0,0c0.9-1.9,2-3,2.9-3h0c1.1,0,1.8,1,1.8,2.3
		c0,0.9-0.4,1.4-0.7,1.7c-0.4,0.3-0.9,0.5-1.4,0.5C93.1,19.8,92.3,19.1,91.8,18.5z M45.8,18.9c-0.1-0.1-0.3-0.2-0.4,0l-0.1,0.1
		c-0.3,0.3-0.9,0.9-1.6,0.9c-0.8,0-1.4-0.4-1.8-1.5l0,0l0,0c2.2-2.9,3.8-7.4,3.7-10.4c-0.1-1.4-0.5-3-2-3c0,0-0.1,0-0.1,0
		c-0.6,0-1.1,0.3-1.6,0.8c-1.4,1.6-2.1,5.5-1.9,9.9c0.1,0.9,0.2,1.8,0.5,2.6l0,0l0,0c-0.8,1-1.7,1.5-2.3,1.5c-1.6,0-1.5-2.7-1.4-4.9
		c0-0.5,0.1-0.8-0.1-1c-0.1-0.1-0.3-0.2-0.5-0.2l0,0c-0.6,0-0.7,0.1-1,1c-0.6,1.7-1.8,4.7-3,4.7c-0.3,0-0.6-0.1-0.8-0.3
		c-0.6-0.7-0.1-2.6,0.2-4.1c0.1-0.3,0.1-0.5,0.2-0.8c0.1-0.4,0.1-0.6-0.1-0.8c-0.1-0.2-0.4-0.2-0.7-0.2c-0.5,0-0.8,0.3-1,1.2l0,0.2
		l-0.1-0.1c-0.2-0.3-0.7-0.7-1.5-0.7c-0.1,0-0.1,0-0.2,0c-0.9,0.1-1.8,0.7-2.6,1.6c-0.8,1-1.2,2.4-1.1,3.7c0,0.1,0,0.1,0,0.2l0,0
		l0,0c-0.5,0.5-1,0.8-1.5,0.8c-0.8,0-1.2-0.6-1.2-1.6c0-1.6,1.1-6.5,1.1-8.3c0-1.9-0.8-2.9-2.3-2.9l0,0c-2.1,0-3.8,2.4-5.4,7.4
		c-0.1,0.5-0.3,1-0.4,1.4L14.5,17l0.1-0.8c0.1-1.7,0.2-3.4,0.3-5c0.1-2.4-0.2-4-1-4.7C13.5,6,13,5.8,12.3,5.8h0
		c-2.6,0-3.9,4.4-4.8,7.5c-0.2,0.7-0.6,2.1-0.9,3.4c0.2-2.1,0.6-5.9,0.5-8.1c0-2.7-0.9-3.9-2.9-3.9h0c-1,0-1.8,0.5-2.2,1
		C1.3,6.4,0.9,7.4,0.9,8.3c0,0.5,0.3,1,0.6,1c0.2,0,0.3-0.2,0.3-0.3c0.6-2,1.4-3,2.4-3c0.4,0,0.7,0.1,1,0.4C6,7.2,5.8,9.4,5.6,13.6
		c-0.1,1.3-0.2,2.8-0.3,4.5c0,0.3,0,0.6,0,0.8c-0.1,1.2-0.1,2.1,0.3,2.2c0.6,0.1,1-0.1,1.2-0.7c0.3-0.9,0.9-3.2,2.2-7.5
		c1.2-4.1,2.1-5.6,3.3-5.6c1.3,0,1.4,2.3,1.2,7.2c-0.1,1-0.1,2.2-0.2,3.5c0,0.2,0,0.4,0,0.5c-0.1,1.1-0.1,1.9,0.2,2.2
		c0.1,0.1,0.2,0.1,0.4,0.1c0.6,0,0.8-0.5,1.1-1.4c0.1-0.2,0.1-0.3,0.2-0.5c2-5.5,3.5-10.3,5.5-10.3c0.6,0,1.1,0.5,1.1,1.4
		c0,2.2-1.1,6.4-1.1,8.5c0,0.8,0.2,1.5,0.6,1.9c0.4,0.5,1,0.8,1.7,0.8h0c0.7,0,1.4-0.3,2.1-1l0.1-0.1l0.1,0.1c0.5,0.6,1.2,1,2,0.9
		c1.2-0.1,2.3-1.2,2.7-2.2l0.1-0.2l0.1,0.2c0.3,0.8,0.9,1.7,2.2,1.6c1.4-0.1,2.6-2.1,3-2.9l0.1-0.2l0,0.2c0.2,1.2,0.8,3.2,2.9,3.2
		l0,0c0.9,0,1.9-0.5,2.8-1.5l0.1-0.1l0.1,0.1c0.7,1.1,1.6,1.7,2.5,1.7C45,21,45.9,20,46,19.3C46,19.1,45.9,19,45.8,18.9L45.8,18.9z
		 M29.8,15.9c-0.4,1.7-1.3,3.8-2.8,4c0,0-0.1,0-0.1,0c-0.6,0-1-0.4-1-1.2c-0.1-1,0.3-2.2,1.1-3c0.5-0.5,1-0.8,1.5-0.8h0
		C29.1,14.9,29.6,15.4,29.8,15.9L29.8,15.9L29.8,15.9z M41.6,16.6l-0.1,0.2l0-0.2c-0.1-0.7-0.1-1.4-0.2-1.9c-0.2-4.2,1-8.3,2.1-8.4
		l0,0c0.1,0,0.3,0.1,0.4,0.2c0.5,0.7,0.5,3.1-0.3,5.8C43,13.8,42.4,15.3,41.6,16.6L41.6,16.6z M36.7,9.6c-0.6,0-1,0.4-1,1
		c0,0.5,0.4,1,1,1l0,0.1v-0.1c0.5,0,1-0.4,1-1C37.7,10,37.3,9.6,36.7,9.6L36.7,9.6z M71.4,9.6c-0.6,0-1,0.4-1,1c0,0.5,0.4,1,1,1
		l0,0.1v-0.1c0.5,0,1-0.4,1-1C72.4,10,71.9,9.6,71.4,9.6z M98.4,19.9c-0.4,0-0.7,0.3-0.7,0.7c0,0.4,0.3,0.7,0.7,0.7
		c0.4,0,0.7-0.3,0.7-0.7C99.1,20.2,98.8,19.9,98.4,19.9z M98.4,21.1c-0.3,0-0.6-0.3-0.6-0.6c0-0.3,0.3-0.6,0.6-0.6
		c0.3,0,0.6,0.3,0.6,0.6C99,20.9,98.7,21.1,98.4,21.1z M98.7,20.4c0-0.1-0.1-0.2-0.2-0.2h-0.3v0.8h0.1v-0.3h0.1l0.2,0.3h0.1
		l-0.2-0.3C98.6,20.6,98.7,20.5,98.7,20.4L98.7,20.4z M98.4,20.5h-0.1v-0.3h0.2c0.1,0,0.2,0,0.2,0.1C98.6,20.5,98.5,20.5,98.4,20.5z
		"/>
</g>
</svg>
