<?xml version="1.0" encoding="utf-8"?>
<!-- Generator: Adobe Illustrator 19.2.1, SVG Export Plug-In . SVG Version: 6.00 Build 0)  -->
<svg version="1.1" id="Layer_1" xmlns="http://www.w3.org/2000/svg" xmlns:xlink="http://www.w3.org/1999/xlink" x="0px" y="0px"
	 viewBox="0 0 100 25.3" style="enable-background:new 0 0 100 25.3;" xml:space="preserve">
<style type="text/css">
	.st0{fill:#FFFFFF;}
</style>
<path class="st0" d="M18.3,11.7l0.2-2c0-0.9-0.3-1.8-0.7-2.5l-1.1,1.5c0.1,0.5,0.2,1,0.2,1.6c-0.2,2.5-2.5,4.6-5.1,4.6
	c-0.6,0-1.2-0.1-1.7-0.3l6.4-6.6l2.7-2.7l-1.9,1c-1.3-1.6-3.3-2.5-5.6-2.5c-4,0.2-7.4,3.4-7.6,7.3c-0.2,3.9,2.9,6.9,6.9,6.7
	C14.4,17.6,17.5,15,18.3,11.7L18.3,11.7z M25.5,13.3c0.1-1.1,0-1.9-0.3-2.4c-0.3-0.5-0.8-0.7-1.5-0.7c-0.3,0-0.6,0-0.9,0.1
	c-0.3,0.1-0.6,0.2-0.9,0.4l-0.6,5.6c0.2,0.1,0.4,0.1,0.6,0.2c0.2,0,0.5,0,0.8,0c0.8,0,1.5-0.3,2-0.8C25.1,15.3,25.4,14.5,25.5,13.3z
	 M33.3,19.2c-1.4,0-2.4-0.3-3-0.9c-0.6-0.6-0.8-1.5-0.7-2.9l0.5-5.2h-1.3c0.2,0.8,0.3,1.8,0.2,3c-0.2,1.8-0.8,3.2-1.8,4.3
	c-1,1.1-2.2,1.6-3.5,1.6c-0.6,0-1-0.1-1.4-0.2c-0.4-0.1-0.8-0.3-1.3-0.6l-0.5,4.7h-3.5l0.6-6.3c-1.9,2.5-4.8,4.1-8,4.1
	c-5.1,0-8.9-4.2-8.5-9.3c0.4-5.2,4.9-9.3,10-9.3c2.6,0,4.8,1.1,6.4,2.8l2.9-1.1l-1.7,2.9c0.2,0.3,0.3,0.7,0.4,1h2.8L22,9
	c0.6-0.4,1.1-0.8,1.7-1.1c0.6-0.3,1.2-0.4,1.9-0.4c0.6,0,1.1,0.1,1.5,0.3h3.3l0.3-3.2h3.5l-0.3,3.2h3.3L37,10.3h-3.3l-0.4,4
	c0,0.3-0.1,0.7-0.1,1c0,0.3,0,0.6,0.1,0.8c0.1,0.2,0.2,0.4,0.4,0.6c0.2,0.1,0.6,0.2,1,0.2c0.2,0,0.4,0,0.7-0.1
	c0.3-0.1,0.5-0.2,0.7-0.2h0.3l-0.2,2.5c-0.4,0.1-0.8,0.2-1.2,0.2C34.5,19.2,34,19.2,33.3,19.2L33.3,19.2z M7.4,10.2
	c0.2-2.5,2.5-4.6,5.1-4.6c1.3,0,2.5,0.5,3.3,1.3L8,12.8C7.5,12,7.3,11.2,7.4,10.2L7.4,10.2z M40.4,19h-3.5L38,7.9h3.5L40.4,19z
	 M41.7,6.3h-3.7l0.3-2.7H42L41.7,6.3z M54.5,19l0.6-5.6c0.1-0.6,0.1-1,0.1-1.4c0-0.4,0-0.7-0.1-0.9c-0.1-0.2-0.2-0.4-0.4-0.5
	c-0.2-0.1-0.5-0.2-0.9-0.2c-0.3,0-0.5,0.1-0.8,0.2c-0.3,0.1-0.6,0.3-0.9,0.5L51.3,19h-3.5l0.6-5.6c0.1-0.5,0.1-1,0.1-1.4
	c0-0.4,0-0.7-0.1-0.9c-0.1-0.2-0.2-0.4-0.4-0.5c-0.2-0.1-0.5-0.2-0.8-0.2c-0.3,0-0.6,0.1-0.9,0.2c-0.3,0.1-0.6,0.3-0.8,0.5L44.6,19
	h-3.5l1.1-11.2h3.5l-0.1,1.2c0.6-0.5,1.2-0.9,1.7-1.1c0.5-0.3,1.1-0.4,1.7-0.4c0.7,0,1.3,0.2,1.7,0.5c0.5,0.3,0.8,0.8,1,1.5
	c0.7-0.6,1.4-1.1,2-1.4c0.6-0.3,1.2-0.5,1.9-0.5c0.5,0,1,0.1,1.4,0.2c0.4,0.2,0.7,0.4,1,0.7c0.3,0.4,0.5,0.8,0.6,1.3
	c0.1,0.5,0.1,1.1,0,1.9L58,19L54.5,19L54.5,19L54.5,19z M63.5,6.3h-3.7l0.3-2.7h3.7L63.5,6.3z M72.6,16.3c-0.4-0.9-0.6-1.9-0.4-3.2
	c0.2-1.8,0.9-3.3,2-4.4c1.2-1.1,2.7-1.6,4.6-1.6c1.7,0,2.9,0.5,3.7,1.4c0.8,0.9,1.1,2.2,0.9,4l-0.1,1.3h-7.6c0,0.5,0,1,0.2,1.3
	c0.2,0.3,0.4,0.6,0.7,0.8c0.3,0.2,0.6,0.4,1,0.4c0.4,0.1,0.8,0.1,1.3,0.1c0.4,0,0.8,0,1.2-0.1c0.4-0.1,0.8-0.2,1.1-0.4
	c0.3-0.1,0.6-0.3,0.8-0.4c0.3-0.1,0.5-0.3,0.6-0.4h0.4l-0.3,2.9c-0.3,0.1-0.5,0.2-0.8,0.3c-0.2,0.1-0.6,0.2-1,0.3
	c-0.4,0.1-0.8,0.2-1.2,0.2c-0.3,0-0.7,0.1-1.1,0.1l-16.3,0h-3.5l1.1-11.2h3.5l-0.8,8.4l5.6-5.8l-4.1,0l0.3-2.6l8.4-0.1l-0.2,2.3
	l-6,6.2L72.6,16.3L72.6,16.3z M80,11.7c0.1-0.7-0.1-1.3-0.3-1.7c-0.3-0.4-0.8-0.6-1.4-0.6c-0.7,0-1.2,0.2-1.7,0.6
	c-0.4,0.4-0.7,1-0.8,1.6H80z M98.7,7.5l-7.2,15.3h-3.7l2.1-4.4l-2.4-8.6l-0.9,8.9h-3.5l1.5-15.5h3.5l-0.4,4.3h2.8l1.6,7l2.9-7
	L98.7,7.5L98.7,7.5z"/>
</svg>
