<svg width="116" height="87" viewBox="0 0 116 87" xmlns="http://www.w3.org/2000/svg">
    <path d="M0 36.176c0 .65.19 1.08.298 1.495.7 2.71 2.2 5.037 3.982 7.158 2.537 3.023 5.644 5.456 8.827 7.745 2.76 1.985 5.577 3.925 8.35 5.894.475.34.925.728 1.44 1.142-.443.24-.813.45-1.197.646-3.658 1.855-7.177 3.935-10.42 6.455-1.956 1.52-3.846 3.134-5.18 5.243-2.15 3.392-2.91 7.007-1.31 10.866.47 1.126 1.182 2.1 2.188 2.82.326.232.692.463 1.074.554.977.23 1.973.38 2.963.563l2.802-.002c3.1-.277 5.92-1.338 8.47-3.097 3.982-2.75 6.666-6.436 7.82-11.167.84-3.438.873-6.88-.115-10.304-.092-.318-.207-.63-.327-.937-.12-.308-.262-.608-.428-.99l6.353-3.654.095.08c-.116.38-.238.756-.343 1.138-.755 2.756-1.256 5.56-1.076 8.423.192 3.05 1.043 5.903 2.828 8.45 1.443 2.06 4.882 2.137 6.415.07.544-.735 1.07-1.503 1.468-2.323 1.035-2.14 1.994-4.315 2.984-6.477l.173-.396c-.072 1.025-.155 1.924-.193 2.824-.06 1.405.023 2.802.504 4.14.41 1.143 1.11 1.997 2.42 2.148.897.103 1.61-.308 2.27-.828 1.03-.812 1.865-1.815 2.486-2.955 1.756-3.227 3.56-6.433 5.152-9.74 1.722-3.576 3.228-7.257 4.827-10.894l.265-.645c.378 1.486.64 2.94 1.126 4.317.565 1.597 1.263 3.157 2.022 4.673.36.716.318 1.18-.18 1.78-2.084 2.514-4.133 5.058-6.183 7.598-.455.56-.906 1.132-1.284 1.745-.228.372-.38.826-.444 1.26-.123.83.39 1.63 1.278 1.82.81.176 1.675.24 2.502.18 2.86-.21 5.46-1.216 7.756-2.918 2.976-2.204 3.93-5.212 3.21-8.778-.194-.967-.54-1.907-.874-2.84-.15-.42-.16-.715.113-1.107 2.38-3.397 4.412-7 6.302-10.688.074-.145.15-.29.282-.445.613 3.187 1.535 6.26 3.187 9.046-.844.813-1.678 1.55-2.433 2.36-1.662 1.787-3.103 3.727-3.855 6.093-.324 1.02-.572 2.057-.428 3.146.223 1.692 1.61 2.79 3.273 2.406 3.56-.824 6.635-2.502 8.88-5.474 1.512-2 1.65-4.234 1.017-6.572-.174-.636-.38-1.26-.6-1.99.877-.273 1.734-.6 2.62-.802 4.6-1.05 9.15-.867 13.583.795 2.588.97 4.68 2.593 5.918 5.147 1.515 3.122.678 6.084-2.265 8.057-.274.183-.588.328-.816.558-.14.14-.223.424-.19.62.02.113.32.255.493.253.968-.006 1.752-.514 2.505-1.035 1.887-1.305 3.263-3.06 3.56-5.374l.058-.173-.07-1.506c-.03-.085.02-.17.014-.237-.4-3.368-2.2-5.98-4.817-8.027-3.03-2.37-6.608-3.345-10.393-3.5-3.084-.125-6.115.333-9.022 1.39-.828.3-1.65.655-2.483.99-.113-.202-.233-.396-.332-.596-.855-1.752-1.892-3.426-2.12-5.435-.164-1.426-.363-2.85-.024-4.262.326-1.357.75-2.69 1.15-4.03.207-.69.062-1.075-.596-1.386-.23-.108-.478-.202-.726-.238-1.617-.236-3.212-.102-4.778.354-.554.16-.957.472-1.08 1.085-.07.35-.213.688-.313 1.036-.408 1.444-.698 2.916-1.36 4.29-1.657 3.452-3.55 6.773-5.486 10.07-.21.355-.43.704-.695 1.136-.68-1.423-1.406-2.7-1.626-4.197-.248-1.692-.444-3.382-.023-5.062.314-1.253.724-2.482 1.1-3.72.18-.586.097-.895-.436-1.204-.268-.157-.572-.296-.875-.34-1.678-.25-3.33-.12-4.948.403-.502.163-.765.487-.918 1.005-.45 1.526-.836 3.09-1.468 4.54-2.563 5.877-5.2 11.722-7.834 17.567-.55 1.22-1.194 2.398-1.814 3.586-.157.303-.386.568-.582.85-.157-.185-.218-.313-.217-.44.004-.75-.086-1.525.057-2.25.433-2.198.932-4.383 1.458-6.56.434-1.798.94-3.58 1.42-5.365.163-.598.166-1.156-.264-1.66-.72-.84-2.228-1.026-3.123-.377l-.395.224.076-.638c.19-1.366.227-2.728-.148-4.074-.468-1.678-1.665-2.644-3.406-2.59-.81.025-1.663.164-2.414.46-3.16 1.237-5.588 3.43-7.655 6.067-.188.24-.436.458-.7.605-2.673 1.482-5.354 2.945-8.034 4.414L27.12 57.29c-.8-.763-1.528-1.554-2.353-2.226-2.52-2.055-5.08-4.06-7.616-6.09-2.25-1.8-4.43-3.677-6.095-6.06-1.24-1.775-2.04-3.716-2.116-5.91-.098-2.795.694-5.348 2.117-7.725 1.82-3.043 4.303-5.484 7.032-7.695 2.886-2.337 6.01-4.322 9.246-6.134 4.528-2.533 9.185-4.776 14.18-6.257 5.12-1.52 10.314-2.388 15.673-1.782 2.105.24 4.15.72 6.03 1.75 1.438.79 2.617 1.822 3.166 3.435.542 1.587.525 3.195.15 4.808-.762 3.265-2.55 5.956-4.8 8.36-3.69 3.943-8.19 6.627-13.26 8.4-2.923 1.023-5.93 1.665-9.02 1.925-2.522.21-4.99-.012-7.378-.89-1.58-.58-2.957-1.47-4.064-2.76-.198-.23-.45-.48-.82-.264-.36.213-.425.556-.304.905.203.577.39 1.18.704 1.697.792 1.298 1.947 2.24 3.218 3.047 2.442 1.553 5.17 2.075 8 2.196 4.296.186 8.485-.456 12.616-1.608 5.898-1.644 11.025-4.55 15.138-9.132 3.424-3.815 5.87-8.122 6.393-13.32.255-2.54-.018-5.026-1.206-7.34-1.29-2.51-3.338-4.375-5.788-5.66C62.398 1.09 58.546 0 54.572 0H50.59c-4.813 0-9.467 1.38-13.99 3.025-3.424 1.246-6.782 2.717-10.04 4.345-7.1 3.547-13.71 7.824-19.14 13.704-2.705 2.93-4.996 6.163-6.313 9.97-.385 1.113-.75 2.308-1.027 3.46L0 36.176zm25.8 31.6c-.307 4.12-2.174 7.46-5.226 10.166-1.716 1.52-3.685 2.603-5.978 2.984-.832.137-1.683.17-2.49-.174-1.15-.49-1.407-1.512-1.43-2.6-.034-1.733.573-3.3 1.406-4.79 1.086-1.945 2.68-3.427 4.38-4.81 2.68-2.182 5.586-4.028 8.563-5.77l.224-.093c.46 1.7.678 3.378.55 5.087zm23.245-17.904c-.218 1.316-.49 2.633-.874 3.908-1.327 4.413-3.034 8.69-4.88 12.91-.34.78-.836 1.492-1.267 2.232-.067.115-.165.214-.262.31-.533.527-1.04.5-1.31-.19-.313-.803-.506-1.662-.672-2.51-.112-.57-.085-1.17-.12-1.753.036-4.153 1.302-7.927 3.45-11.44.887-1.448 1.852-2.828 3.326-3.745.452-.282.96-.508 1.473-.652.786-.22 1.268.142 1.138.93zm15.857 20.204l5.7-6.655c.238 2.473-3.963 7.407-5.7 6.656zm18.204-4.478c-.403.23-.84.397-1.254.61-.378.197-.503 0-.514-.326-.008-.22.025-.452.086-.666.77-2.715 2.186-5.032 4.293-6.917l.148-.076c1.002 2.804-.156 5.883-2.76 7.374z" fill="#FFF" fill-rule="evenodd"/>
</svg>
