<?xml version="1.0" encoding="utf-8"?>
<!-- Generator: Adobe Illustrator 19.2.1, SVG Export Plug-In . SVG Version: 6.00 Build 0)  -->
<svg version="1.1" id="Layer_1" xmlns="http://www.w3.org/2000/svg" xmlns:xlink="http://www.w3.org/1999/xlink" x="0px" y="0px"
	 viewBox="0 0 100 100" style="enable-background:new 0 0 100 100;" xml:space="preserve">
<style type="text/css">
	.st0{fill:#FFFFFF;}
</style>
<path class="st0" d="M89.2,50.1c0-4.1-0.6-8-1.8-11.7L69.9,83.9C81.4,77,89.2,64.5,89.2,50.1L89.2,50.1z"/>
<path class="st0" d="M37.6,87.3c3.9,1.3,8.1,2,12.4,2c4.5,0,8.9-0.8,12.9-2.2L51,56.1L37.6,87.3L37.6,87.3z"/>
<path class="st0" d="M12.5,39.1c-1,3.5-1.6,7.2-1.6,11.1c0,14.7,8.1,27.4,20,34.1l-18.3-45L12.5,39.1L12.5,39.1z"/>
<path class="st0" d="M32.4,36.6l-1.7-0.1c-3.7-0.1-3.3,3.7-3.3,3.7l13,32.6L49.2,52l-4.9-12.4c-2-3.3-6.7-3.3-6.7-3.3v-1.7H65l0,1.9
	l-2.8,0.2c-3.5,0-2.8,3.4-2.8,3.4l11.9,31.7l3.4-8.8c6-13.7,2.3-23.8,2.3-23.8c-6-12.4,1.6-14.2,1.6-14.2c0.5-0.1,0.9-0.1,1.4-0.1
	C72.7,16.3,62,11,50,11c-16.1,0-30,9.8-36,23.7l18.3-0.2L32.4,36.6L32.4,36.6z"/>
<path class="st0" d="M94,50c0,24.3-19.7,44-44,44C25.7,94,6,74.3,6,50C6,25.7,25.7,6,50,6C74.3,6,94,25.7,94,50z M50,4
	C24.6,4,4,24.6,4,50s20.6,46,46,46c25.4,0,46-20.6,46-46C96,24.6,75.4,4,50,4z"/>
</svg>
